# xmcd
#
# Track frame offsets: 
#        150
#        15122
#        27652
#        39973
#        54679
#        67596
#        83670
#        96645
#        112915
#        130506
#        147222
#        163831
#        177365
#        191527
#        205928
#        221384
#        236974
#        247664
#        263801
#        278161
#
# Disc length: 3829 seconds
#
# Revision: 1
# Processed by: cddbd v1.5.2PL0 Copyright (c) Steve Scherf et al.
# Submitted via: ExactAudioCopyFreeDBPlugin 1.0
#
DISCID=0d0ef314
DTITLE=C.S. Lewis - The Abolition of Man
DYEAR=2006
DGENRE=Audio Book
TTITLE0=TAOM Chapter 2a
TTITLE1=TAOM Chapter 2b
TTITLE2=TAOM Chapter 2c
TTITLE3=TAOM Chapter 2d
TTITLE4=TAOM Chapter 2e
TTITLE5=TAOM Chapter 2f
TTITLE6=TAOM Chapter 2g
TTITLE7=TAOM Chapter 2h
TTITLE8=TAOM Chapter 2i
TTITLE9=TAOM Chapter 3a
TTITLE10=TAOM Chapter 3b
TTITLE11=TAOM Chapter 3c
TTITLE12=TAOM Chapter 3d
TTITLE13=TAOM Chapter 3e
TTITLE14=TAOM Chapter 3f
TTITLE15=TAOM Chapter 3g
TTITLE16=TAOM Chapter 3h
TTITLE17=TAOM Chapter 3i
TTITLE18=TAOM Chapter 3j
TTITLE19=TAOM End Credits
EXTD=
EXTT0=
EXTT1=
EXTT2=
EXTT3=
EXTT4=
EXTT5=
EXTT6=
EXTT7=
EXTT8=
EXTT9=
EXTT10=
EXTT11=
EXTT12=
EXTT13=
EXTT14=
EXTT15=
EXTT16=
EXTT17=
EXTT18=
EXTT19=
PLAYORDER=
